<?xml version="1.0" encoding="utf-8"?>
<!-- Generator: Adobe Illustrator 16.0.0, SVG Export Plug-In . SVG Version: 6.00 Build 0)  -->
<!DOCTYPE svg PUBLIC "-//W3C//DTD SVG 1.1//EN" "http://www.w3.org/Graphics/SVG/1.1/DTD/svg11.dtd">
<svg version="1.1" id="Layer_1" xmlns="http://www.w3.org/2000/svg" xmlns:xlink="http://www.w3.org/1999/xlink" x="0px" y="0px"
	 width="70px" height="90px" viewBox="0 0 70 90" enable-background="new 0 0 70 90" xml:space="preserve">
<g>
	<path fill="none" d="M47.99,75.09c-0.016-0.002-0.025,0.002-0.041,0c0.004,0.002,0.008,0.004,0.012,0.005
		C47.971,75.094,47.98,75.091,47.99,75.09z"/>
	<path fill="none" d="M45.898,39.139c-0.381-0.183-0.318,0.162-0.377,0.331c-0.453,1.292-1.105,2.481-1.854,3.62
		c-0.973,1.484-2.293,2.531-3.963,3.151c-1.051,0.39-2.121,0.7-3.23,0.935c1.176,0.331,1.631,1.363,2.279,2.235
		c0.16-0.351,0.279-0.705,0.633-0.869c1.299-0.605,2.615-0.846,3.938-0.09c0.162,0.091,0.244,0.108,0.371,0.004
		c0.916-0.757,1.83-1.473,2.201-2.721c0.604-2.023,0.557-4.079,0.574-6.145C46.473,39.093,46.121,39.245,45.898,39.139z"/>
	<path fill="none" d="M6.307,8.213v81.75H18.15c0.098-3.084,0.159-6.17,0.448-9.244c0.09-0.949-0.421-1.729-0.632-2.592
		c-0.293-1.197-0.736-2.356-1.065-3.546c-0.101-0.36-0.199-0.515-0.605-0.527c-0.979-0.032-1.859-0.507-2.797-0.733
		c-0.283-0.068-0.162-0.326-0.154-0.488c0.303-5.095,1.735-9.829,4.466-14.168c1.902-3.024,4.16-5.705,7.077-7.805
		c0.663-0.477,1.277-0.937,1.77-1.701c0.727-1.129,1.948-1.883,3.253-2.383c0.112-0.043,0.223-0.094,0.428-0.181
		c-1.111-0.461-2.222-0.728-3.241-1.235c-1.725-0.857-3.354-1.797-4.264-3.607c-0.042-0.084-0.115-0.165-0.194-0.215
		c-1.465-0.935-2.82-1.99-3.809-3.481c0.026,0.965,0.207,1.875,0.236,2.804c0.04,1.247,0.095,2.509-0.204,3.714
		c-0.488,1.96-1.341,3.706-3.497,4.372c-0.302,0.093-0.603,0.101-0.951,0.074c0.321-0.643,0.916-0.975,1.207-1.64
		c0.552-1.261,0.393-2.405-0.027-3.591c-0.69-1.95-2.044-3.461-3.35-5.005c-1.196-1.416-2.472-2.83-2.748-4.739
		c-0.44-3.053,0.296-5.494,2.824-7.148c0.939-0.614,1.829-1.317,3.054-1.174c0.334,0.039,0.402-0.193,0.446-0.45
		c0.287-1.635,0.841-3.197,1.531-4.688c1.628-3.5,4.249-6.006,7.855-7.432c2.449-0.968,4.991-1.595,7.6-1.956
		c0.007,0,0.014,0,0.021-0.001c-0.007,0-0.013,0-0.02,0c0.002-0.04,0.007-0.08,0.013-0.12c0.732,0,1.465,0,2.198,0
		c0.006,0.039,0.011,0.079,0.013,0.119H35.03c4.347,0.7,7.943,2.729,10.863,6.029c1.916,2.164,2.963,4.659,3.15,7.523
		c0.027,0.432,0.207,0.62,0.568,0.81c1.559,0.821,3.152,1.583,4.672,2.699c-1.729,1.061-3.584,0.57-5.473,0.732
		c0.686,0.386,1.141,0.896,1.637,1.364c1.451,1.374,2.24,4.032,0.254,6.14c-0.293,0.311-0.475,0.65-0.627,1.039
		c-0.299,0.764-0.793,1.327-1.684,1.411c-0.291,0.027-0.434,0.167-0.502,0.501c-0.307,1.505-0.334,3.042-0.564,4.555
		c-0.313,2.073-1.422,3.63-3.082,4.843c-0.186,0.136-0.402,0.216-0.426,0.532c-0.105,1.439-0.119,1.438-1.32,2.288
		c1.627,1.15,2.809,2.698,4.088,4.16c1.277,1.461,2.281,3.093,3.176,4.796c0.281,0.535,0.488,0.587,1.047,0.345
		c2.408-1.044,4.594-2.437,6.668-4.022c0.365-0.278,0.779-0.648,0.842,0.231c0.004,0.058,0.061,0.111,0.092,0.166
		c0.652-0.624,1.234,0.43,1.891,0.079c0.205-0.109,0.445-0.047,0.506,0.244c0.096,0.451,0.365,0.273,0.607,0.172
		c0.191-0.08,0.316-0.404,0.551-0.262c0.291,0.179-0.102,0.432-0.01,0.657h0.002l0.041,0.039c0,0,0,0,0,0.001
		c0.355-0.132,0.268,0.144,0.264,0.307c-0.016,1.057-0.313,2.064-0.59,3.066c-0.953,3.402-1.52,6.906-2.768,10.229
		c-0.504,1.347-1.293,2.55-1.83,3.881c-0.285,0.71-0.389,1.334-0.096,2.072c0.705,1.78,0.598,3.641,0.264,5.468
		c-0.166,0.909-0.684,1.671-1.557,2.191c-0.902,0.538-1.764,1.124-2.283,2.152c-0.496,0.977-1.523,1.483-2.418,2.065
		c-0.129,0.084-0.221,0.17-0.293,0.264h11.582V8.213H6.307z"/>
	<path fill="#666654" d="M47.949,75.09c-0.018-0.002-0.029,0.001-0.049-0.002c0-0.002-0.002-0.003-0.002-0.005
		c0,0.003-0.002,0.005-0.002,0.008c0.004,0.001,0.008,0.002,0.012,0.003l0,0c0.004,0.003,0.008,0.006,0.012,0.009
		c0.018,0,0.025-0.006,0.041-0.008C47.957,75.094,47.953,75.092,47.949,75.09z"/>
	<path fill="#666654" d="M28.874,26.146c0.092-0.028,0.183-0.03,0.273-0.044C29.053,26.095,28.961,26.103,28.874,26.146z"/>
	<path fill="#666654" d="M25.801,61.647c0.026-0.014,0.053-0.028,0.08-0.04c-0.031,0-0.06-0.006-0.092-0.006
		C25.793,61.616,25.796,61.633,25.801,61.647z"/>
	<path fill="#666654" d="M47.699,63.564c0.455-0.39,0.912,0.123,1.348,0.252c0.475,0.141,0.68,0.529,0.625,1.11
		c-0.143,1.532-0.557,3.009-0.809,4.517c-0.313,1.877-0.641,3.75-0.963,5.625c0.016,0.008,0.031,0.016,0.049,0.021
		c0.016,0.002,0.025-0.002,0.041,0c0.277-0.044,0.314-0.294,0.355-0.521c0.346-1.883,0.701-3.766,1.018-5.653
		c0.227-1.363,0.65-2.698,0.6-4.104c-0.016-0.406,0.342-0.562,0.607-0.757c0.67-0.487,1.473-0.651,2.254-0.776
		c2.459-0.395,4.479-1.675,6.43-3.103c0.725-0.53,1.479-1.03,2.123-1.668c0.154-0.152,0.346-0.266,0.576-0.28
		c-0.092-0.226,0.301-0.479,0.01-0.657c-0.234-0.143-0.359,0.182-0.551,0.262c-0.242,0.102-0.512,0.279-0.607-0.172
		c-0.061-0.291-0.301-0.354-0.506-0.244c-0.656,0.351-1.238-0.703-1.891-0.079c-0.031-0.055-0.088-0.108-0.092-0.166
		c-0.063-0.88-0.477-0.51-0.842-0.231c-2.074,1.586-4.26,2.979-6.668,4.022c-0.559,0.242-0.766,0.19-1.047-0.345
		c-0.895-1.703-1.898-3.335-3.176-4.796c-1.279-1.462-2.461-3.01-4.088-4.16c1.201-0.85,1.215-0.849,1.32-2.288
		c0.023-0.316,0.24-0.396,0.426-0.532c1.66-1.213,2.77-2.77,3.082-4.843c0.23-1.513,0.258-3.05,0.564-4.555
		c0.068-0.334,0.211-0.474,0.502-0.501c0.891-0.084,1.385-0.647,1.684-1.411c0.152-0.388,0.334-0.728,0.627-1.039
		c1.986-2.108,1.197-4.767-0.254-6.14c-0.496-0.467-0.951-0.978-1.637-1.364c1.889-0.162,3.744,0.328,5.473-0.732
		c-1.52-1.116-3.113-1.878-4.672-2.699c-0.361-0.19-0.541-0.377-0.568-0.81c-0.188-2.864-1.234-5.359-3.15-7.523
		c-2.92-3.299-6.516-5.329-10.863-6.029c-0.734,0-1.47,0-2.203,0c-0.007,0-0.014,0-0.021,0.001c-2.608,0.36-5.15,0.987-7.6,1.956
		c-3.606,1.426-6.228,3.932-7.855,7.432c-0.69,1.491-1.244,3.052-1.531,4.688c-0.044,0.257-0.112,0.489-0.446,0.45
		c-1.225-0.143-2.114,0.56-3.054,1.174c-2.528,1.654-3.265,4.095-2.824,7.148c0.276,1.909,1.552,3.324,2.748,4.739
		c1.306,1.544,2.659,3.055,3.35,5.005c0.42,1.187,0.579,2.331,0.027,3.591c-0.291,0.665-0.886,0.997-1.207,1.64
		c0.349,0.026,0.649,0.019,0.951-0.074c2.156-0.666,3.009-2.411,3.497-4.372c0.299-1.205,0.244-2.467,0.204-3.714
		c-0.029-0.928-0.21-1.838-0.236-2.804c0.988,1.492,2.344,2.546,3.809,3.481c0.079,0.05,0.152,0.13,0.194,0.215
		c0.91,1.81,2.539,2.75,4.264,3.607c1.02,0.507,2.13,0.774,3.241,1.235c-0.205,0.087-0.315,0.138-0.428,0.181
		c-1.305,0.5-2.526,1.254-3.253,2.383c-0.492,0.765-1.106,1.225-1.77,1.701c-2.917,2.1-5.175,4.78-7.077,7.805
		c-2.73,4.339-4.163,9.073-4.466,14.168c-0.008,0.162-0.129,0.42,0.154,0.488c0.938,0.227,1.817,0.701,2.797,0.733
		c0.406,0.013,0.505,0.167,0.605,0.527c0.329,1.189,0.772,2.349,1.065,3.546c0.211,0.862,0.722,1.643,0.632,2.592
		c-0.289,3.074-0.351,6.16-0.448,9.244h0.389c0.016-0.59,0.036-1.18,0.072-1.77c0.052-0.852,0.106-1.703,0.161-2.555h0.001
		c-0.124-1.611,0.142-3.209,0.193-4.846c0.354,0.849,0.947,1.544,1.395,2.328c1.571,2.752,4.503,3.629,6.892,3.111
		c0.699-0.152,1.298-0.553,1.907-0.896c3.536-1.998,6.846-4.287,9.542-7.375c0.367-0.422,0.766-0.817,1.148-1.225
		c0.24-0.385,0.406-0.01,0.564,0.081c0.225,0.128,0.408,0.329,0.609,0.497c0,0.001,0,0.001,0,0.001
		c0.777,0.459,1.65,0.53,2.57,0.569c-0.523,1.993-0.969,3.962-1.146,5.964c-0.188,2.079-0.752,4.085-1.182,6.114h0.496
		c1.484-8.82,3.594-17.557,4.848-26.709C47.027,64.066,47.295,63.913,47.699,63.564z M47.107,63.476
		c-0.041-0.008-0.1-0.13-0.084-0.179c0.094-0.309,0.373-0.284,0.621-0.306C47.484,63.192,47.457,63.541,47.107,63.476z
		 M57.688,57.193c-0.016,0.871,0.361,0.841,0.844,0.627c0.232-0.104,0.439-0.208,0.621,0.156c0.137,0.273,0.49,0.146,0.74,0.084
		c0.219-0.054,0.309-0.03,0.523,0.123c0.473,0.339,0.238,0.458-0.053,0.662c-1.178,0.826-2.342,1.666-3.525,2.48
		c-1.512,1.043-3.285,1.417-5.016,1.898c-0.324,0.09-0.652,0.192-0.955,0.337c-0.434,0.207-0.805,0.829-1.313,0.031
		c1.516-1.093,3.416-1.628,4.992-2.737c-1.527,0.613-3.047,1.238-4.445,2.11c-0.492,0.307-0.965,0.56-1.604,0.167
		c1.152-0.484,2.279-0.958,3.404-1.432c-1.391,0.135-2.553,0.959-3.91,1.201C51.207,61.051,54.752,59.797,57.688,57.193z
		 M43.502,49.918c-0.066,0.737-0.652,1.042-1.223,1.313c-0.629,0.3-1.318,0.337-1.998,0.262c-0.457-0.05-0.779-0.294-0.916-0.8
		c-0.398-1.459,0.07-2.099,1.719-2.256c0.168-0.016,0.34-0.003,0.512-0.003C42.963,48.435,43.594,48.917,43.502,49.918z
		 M43.695,48.456c-0.127,0.104-0.209,0.087-0.371-0.004c-1.322-0.756-2.639-0.516-3.938,0.09c-0.354,0.164-0.473,0.519-0.633,0.869
		c-0.648-0.872-1.104-1.904-2.279-2.235c1.109-0.234,2.18-0.545,3.23-0.935c1.67-0.621,2.99-1.667,3.963-3.151
		c0.748-1.139,1.4-2.328,1.854-3.62c0.059-0.169-0.004-0.514,0.377-0.331c0.223,0.106,0.574-0.046,0.572,0.452
		c-0.018,2.065,0.029,4.122-0.574,6.145C45.525,46.983,44.611,47.699,43.695,48.456z M35.357,47.867
		c-0.098-0.164-0.151-0.393,0.019-0.545c0.16-0.142,0.365-0.076,0.548,0.005c0.766,0.338,1.487,0.723,1.911,1.505
		c0.412,0.762,1.043,1.383,1.291,2.259c0.219,0.774-0.092,1.399-0.195,2.034c-0.555-0.501-1.068-0.943-1.557-1.413
		c-0.396-0.382-0.795-0.718-1.4-0.64c-0.272,0.034-0.387-0.049-0.321-0.377C35.844,49.729,35.896,48.767,35.357,47.867z
		 M31.951,47.09c0.279-0.359,0.932,0.047,1.435,0.043c1.456-0.012,1.452,0.023,1.487,1.465c0.007,0.238,0.063,0.476,0.097,0.713l0,0
		h0.001c0.021,0.091,0.04,0.182,0.061,0.273c0.403-0.382-0.037-0.89,0.218-1.347c0.315,0.724,0.311,1.417,0.089,2.123
		c-0.251,1.013-0.512,1.13-1.315,0.521c-0.799-0.604-1.731-1.042-2.364-1.859c-0.006,0.001-0.009,0.005-0.015,0.005l0.01-0.01
		c0.002,0.002,0.004,0.003,0.005,0.005c0.267-0.043,0.278-0.264,0.314-0.468C31.949,48.053,31.717,47.391,31.951,47.09z
		 M47.621,39.035c-0.381,2.072-0.248,4.217-0.887,6.249c-0.137,0.436-0.301,0.869-0.686,1.173c0.77-2.222,0.732-4.504,0.688-6.787
		c-0.002-0.219-0.023-0.444,0.018-0.656c0.063-0.321,0.336-0.384,0.613-0.392C47.676,38.615,47.652,38.854,47.621,39.035z
		 M50.021,30.405c0.877,0.744,1.357,1.654,1.438,2.779c0.348,1.084-0.221,1.894-0.852,2.707c0.049-1.657,0.025-3.299-0.486-4.888v0
		C50.076,30.822,49.902,30.672,50.021,30.405z M49.514,30.371c0.564,1.799,0.963,3.623,0.592,5.523
		c-0.146,0.752-0.344,1.492-0.758,2.148c-0.398,0.63-0.715,0.634-1.385,0.302c-0.41-0.203-0.893-0.03-1.27,0.264
		c-0.23,0.181-0.428,0.429-0.76,0.231c-0.387-0.229-0.043-0.523-0.047-0.781c-0.02-1.371,0.615-2.506,1.367-3.615
		c-0.543,0.294-0.732,0.872-1.207,1.375c-0.047-0.903,0.191-1.663,0.283-2.431c0.084-0.698,0.24-1.387,0.27-2.094
		c0.006-0.159-0.035-0.382,0.186-0.423c0.189-0.035,0.287,0.145,0.393,0.28c0.436,0.556,0.475,1.252,0.672,2.084
		c0.166-1.146-0.021-1.997-0.813-2.607c-0.537-0.414-0.238-0.998-0.381-1.488c-0.037-0.126,0.125-0.17,0.252-0.203
		C47.967,28.668,49.182,29.313,49.514,30.371z M50.398,26.447c0.945,0.54,1.891,1.079,2.926,1.67
		c-1.309,0.541-2.582,0.419-3.816,0.331c-1.703-0.122-3.412-0.008-5.113-0.218c-2.438-0.302-4.885-0.519-7.328-0.789
		c-2.292-0.254-4.581-0.547-6.847-0.984c-0.453-0.087-0.898-0.208-1.346-0.312c-0.979-0.24-2.009-0.24-2.962-0.627
		c0.959,0.767,2.199,0.744,3.312,1.178c-0.144,0.363-0.339,0.684-0.643,0.936c-1.266,1.753-2.786,3.14-5.027,3.488
		c0.947-0.691,1.943-1.323,2.526-2.409c-1.044,1.01-2.168,1.889-3.65,2.474c0.734-1.546,1.4-2.988,1.622-4.58
		c-0.022-0.16-0.045-0.32-0.069-0.494c-0.326,0.149-0.175,0.44-0.26,0.646c0,0-0.001,0-0.001,0.001
		c-0.345,1.619-0.98,3.112-1.994,4.633c-0.449-1.344-1.431-1.961-2.529-2.448c0.001,0,0.001-0.001,0.002-0.001
		c-0.001,0-0.001,0-0.002,0c-1.68,0.017-1.922,0.174-2.906,1.917c-0.056-0.949-0.097-1.865-0.166-2.78
		c-0.033-0.447,0.159-0.647,0.58-0.771c3.048-0.904,6.124-1.673,9.268-2.182c1.501-0.243,3.004-0.25,4.513-0.293
		c1.576-0.044,3.142-0.277,4.726-0.266c2.435,0.017,4.871-0.042,7.306-0.027c2.074,0.014,4.111,0.371,6.098,0.934
		C49.25,25.655,49.807,26.115,50.398,26.447z M17.731,31.799c-0.607,1.721,0.312,4.373,3.083,4.16
		c0.13-0.011,0.266-0.155,0.409,0.008c-0.038,0.316-0.326,0.36-0.535,0.379c-0.913,0.085-1.854,0.065-2.537-0.629
		c-1.622-1.652-1.979-2.868-1.271-5.006c0.339-1.022,0.987-1.403,2.075-1.337c0.984,0.061,2.142,1.111,2.247,2.084
		c-0.567-0.43-1.139-0.767-1.862-0.755C18.488,30.717,18.012,30.998,17.731,31.799z M18.5,32.152
		c0.952,0.672,2.006,2.141,2.401,3.313c-2.212,0.401-3.207-1.561-2.87-3.282C18.117,31.741,18.366,32.058,18.5,32.152z
		 M15.849,26.771c0.592-2.535,1.146-5.131,2.532-7.34c1.712-2.722,4.018-4.851,7.194-5.92c2.359-0.794,4.749-1.401,7.201-1.787
		c0.383-0.061,0.777-0.043,1.167-0.061c3.599-0.036,6.621,1.44,9.318,3.655c2.377,1.951,4.283,4.262,4.977,7.369
		c0.043,0.189,0.09,0.378,0.113,0.569c0.178,1.538,0.164,1.591-1.334,1.273c-3.404-0.722-6.828-0.516-10.26-0.332
		c-1.753,0.094-3.514,0.055-5.272,0.056c-4.639,0.001-9.14,0.825-13.538,2.267c-0.577,0.188-1.163,0.352-1.726,0.575
		C15.817,27.256,15.783,27.056,15.849,26.771z M17.344,46.673c-0.098,0.268-0.183,0.556-0.438,0.734
		c-0.001,0.001-0.002,0.002-0.003,0.003c-0.306,0.475-0.576,0.996-1.396,1.047c0.245-0.312,0.423-0.536,0.599-0.76h-0.001
		c0.428-0.979,0.363-1.985,0.188-3.007c-0.371-2.16-1.546-3.838-3.037-5.382c-1.063-1.103-1.958-2.359-2.716-3.705
		c-1.525-2.709-0.729-6.434,1.808-8.219c0.705-0.496,1.365-1.115,2.293-1.201c0.551-0.081,1.093-0.167,0.761,0.715
		c-0.063,0.167-0.089,0.438,0.073,0.556c0.658,0.488,0.221,0.722-0.154,1.098c-1.466,1.476-1.824,3.319-1.635,5.318
		c0.028,0.314,0.063,0.627,0.097,0.941c0.676,2.07,1.799,3.928,2.784,5.851C17.782,42.543,18.124,44.538,17.344,46.673z
		 M18.319,45.185c-0.056,0.207-0.128,0.409-0.25,0.611c0.171-0.94,0.069-1.865-0.137-2.77c-0.333-1.462-1.107-2.739-1.813-4.04
		c-0.615-1.134-1.242-2.263-1.681-3.478c-0.783-2.176-0.743-4.282,0.636-6.246c0.18-0.255,0.368-0.503,0.813-0.727
		c-0.278,1.596,0.228,3.013,0.257,4.472c0.012,0.662,0.312,1.298,0.722,1.806c0.921,1.142,1.265,2.495,1.534,3.876
		C18.825,40.858,18.891,43.027,18.319,45.185z M18.358,36.573c1.017,0.115,1.859,0.44,2.729,0.158
		c0.158-0.052,0.266,0.083,0.288,0.251c0.168,1.221,0.462,2.413,0.935,3.692C20.461,39.743,19.491,38.192,18.358,36.573z
		 M25.58,44.059c-1.987-1.121-2.851-3.061-3.407-5.127c-0.377-1.397-0.767-2.812-0.763-4.285c-0.023-0.277-0.049-0.553-0.084-0.958
		c-0.313,0.32-0.166,0.61-0.304,1c-0.638-1.358-1.591-2.309-2.755-3.053c0.893-1.027,2.271-0.682,3.188,0.771
		c0.036-0.518,0.559-0.985,1.14-0.934c1.969,0.172,3.601-0.575,4.893-1.965c0.748-0.805,1.536-1.107,2.578-0.999
		c0.321,0.033,0.883,0.227,0.89-0.276c0.005-0.423-0.543-0.456-0.941-0.455c-0.285,0.001-0.572,0-0.877,0
		c0.271-0.812,0.667-0.985,1.515-0.794c2.917,0.656,5.894,0.966,8.871,1.249c0.324,0.032,0.693-0.079,0.682,0.524
		c-0.008,0.269,0.525,0.356,0.799,0.257c0.551-0.201,1.076-0.215,1.635-0.074c0.154,0.039,0.406,0.039,0.488-0.055
		c0.313-0.353,0.66-0.183,1.01-0.149c0.438,0.042,0.877,0.091,1.313,0.072c0.693-0.03,0.992,0.244,0.869,0.945
		c-0.029,0.167-0.021,0.341-0.033,0.51c-0.033,1.436-0.236,2.856-0.424,4.276c-0.209,1.581-0.164,3.195-0.721,4.73
		c-0.65,1.802-1.447,3.551-2.863,4.846c-1.434,1.311-3.244,2.004-5.152,2.403C32.911,47.402,29.165,46.078,25.58,44.059z
		 M27.259,49.075c0.69-0.587,1.399-1.135,2.183-1.588c0.146-0.085,0.302-0.158,0.461-0.222c1.277-0.516,1.743-0.222,1.745,1.104
		c0,0.213-0.003,0.427-0.006,0.641c0.004,0.002,0.006,0.005,0.01,0.008l-0.01,0.01c0-0.006,0-0.012,0-0.018
		c-0.597-0.386-0.466-1.125-0.791-1.653c-0.185,0.876,0.168,1.807,0.916,2.374c0.757,0.572,1.525,1.129,2.326,1.721
		c-0.964,0.684-1.556,1.604-1.894,2.699c-0.121,0.401-0.404,0.568-0.822,0.58c-0.996,0.03-1.821-0.286-2.39-1.132
		c-0.706-1.051-1.42-2.097-1.962-3.249C26.793,49.854,26.79,49.475,27.259,49.075z M44.9,72.604
		c-0.043,0.416-0.162,0.799-0.354,1.164c-0.002,0.003-0.002,0.006-0.004,0.008c0.002-0.002,0.004-0.004,0.004-0.007
		c0.041,1.108-0.328,2.138-0.637,3.177c-0.082,0.277-0.264,0.355-0.535,0.385c-0.936,0.104-1.785-0.069-2.494-0.723
		c-0.33-0.305-0.678-0.546-1.154-0.512c-2.176,2.624-4.699,4.868-7.508,6.79c-1.525,1.045-3.1,2.026-4.8,2.759
		c-1.746,0.752-4.678,0.027-6.166-1.895c-1.058-1.367-1.798-2.887-2.401-4.521c-0.474-1.286-0.934-2.568-1.294-3.889
		c-0.393-1.309-0.396-1.252,0.928-1.184c1.602,0.084,3.21,0.088,4.814,0.063c0.565-0.01,0.77,0.198,0.839,0.707
		c0.082,0.598,0.204,1.189,0.308,1.784c0,0,0,0-0.001,0c0.001,0,0.001,0,0.001,0.001c0.163,0.658,0.281,1.332,0.505,1.97
		c0.162,0.457,0.005,0.616-0.386,0.74c-0.516,0.163-1.023,0.353-1.639,0.566c0.4,0.173,0.646,0.062,0.903,0.001
		c1.647-0.393,3.126-1.172,4.598-1.98c2.575-1.417,5.171-2.797,7.754-4.196c0.258-0.139,0.49-0.317,0.744-0.462
		c0.83-0.468,1.281-1.076,1.344-2.121c0.105-1.729,1.371-2.606,2.865-3.137c0.896-0.317,1.854-0.389,2.811-0.336
		c0.986,0.055,1.459,0.619,1.34,1.594C45.152,70.434,45.016,71.518,44.9,72.604z M42.477,67.112
		c-0.139-0.562-0.289-1.119-0.436-1.679c-0.266-0.516-0.297-1.087-0.336-1.662c0.156,0.508,0.311,1.016,0.467,1.523
		c0.203,0.566,0.416,1.133,0.609,1.704c0.031,0.099,0.184,0.284-0.082,0.325C42.545,67.35,42.508,67.244,42.477,67.112z
		 M46.441,63.064c-0.301,1.615-0.607,3.228-0.922,4.893c-0.459-0.28-0.904-0.557-1.426-0.65c-0.813,0.262-0.965-0.303-1.197-0.884
		c-0.887-2.22-1.332-4.556-1.867-6.868c-0.107-0.466-0.344-0.898-0.313-1.412c0.027-0.438-0.354-0.379-0.645-0.347
		c-0.344,0.039-0.449,0.241-0.346,0.567c0.818,2.563,1.258,5.231,2.148,7.776c0.143,0.411,0.248,0.835,0.385,1.304
		c-0.992,0.137-1.885,0.559-2.744,1.114c-0.992,0.642-1.473,1.564-1.555,2.665c-0.055,0.739-0.398,1.166-0.949,1.557
		c-1.814,1.283-3.859,2.14-5.802,3.189c-0.64,0.345-1.275,0.699-1.914,1.049c-0.001,0-0.001,0-0.002,0c0.001,0,0.001,0,0.002,0.001
		c-1.093,0.623-2.164,1.287-3.326,1.786c-0.325,0.14-0.527,0.176-0.63-0.261c-0.31-1.321-0.649-2.636-0.981-3.952
		c-0.088-0.35,0.141-0.375,0.372-0.35c0.857,0.092,1.082-0.447,1.176-1.141c0.357-2.629,0.063-5.254-0.069-7.878
		c-0.067-1.312-0.247-2.612-0.654-3.867c-0.072-0.219,0-0.577-0.396-0.595c0.657,3.093,0.679,6.241,0.854,9.379
		c0.048,0.842-0.383,1.035-1.009,1.141c-3.408,0.578-6.782,0.387-10.123-0.481h-0.001c-0.497,0.212-0.078,0.283,0.067,0.321
		c1.244,0.328,2.503,0.615,3.783,0.738c2.235,0.217,4.474,0.32,6.683-0.247c0.331-0.085,0.478,0.007,0.495,0.389
		c0.072,1.602-0.081,1.794-1.652,1.771c-2.463-0.034-4.926-0.08-7.387-0.14c-0.832-0.021-1.638-0.214-2.421-0.49
		c-0.261-0.092-0.438-0.183-0.344-0.57c0.149-0.609,0.173-1.25,0.249-1.878l0,0c0.585-4.297,2.046-8.271,4.364-11.938
		c1.096-1.736,2.309-3.376,3.769-4.825c0.184-0.184,0.396-0.338,0.597-0.505c-0.001-0.007-0.004-0.015-0.005-0.021
		c0.009,0.001,0.012,0.006,0.021,0.007c0.584-0.809,1.404-1.348,2.194-1.923l0,0c0.012-0.021,0.018-0.05,0.035-0.063
		c0.493-0.346,1.009-0.988,1.475-0.953c0.511,0.036,0.592,0.934,0.927,1.419c0.573,0.833,1.119,1.685,1.676,2.528
		c0.001,0.001,0.002,0.002,0.003,0.002c0.665,0.461,1.341,0.828,2.21,0.766c0.684-0.049,1.159-0.24,1.338-0.957
		c0.1-0.396,0.251-0.783,0.538-1.096c0.321-0.645,0.757-1.157,1.521-1.334c0.139,0.34-0.043,0.602-0.163,0.875
		c-0.296,0.582-0.512,1.23-0.912,1.73c-0.574,0.72-0.531,1.494-0.433,2.289c0.422,3.401,0.875,6.799,1.297,10.199
		c0.113,0.912,0.285,1.08,1.094,0.693c0.738-0.355,1.572-0.215,2.3-0.554c-0.148-0.36-0.381-0.407-0.756-0.308
		c-0.584,0.156-1.197,0.207-1.751,0.473c-0.307,0.146-0.418,0.07-0.454-0.279c-0.301-2.944-0.813-5.865-1.026-8.822
		c-0.018-0.24-0.073-0.48-0.132-0.717c-0.303-1.236-0.194-2.373,0.592-3.449c0.421-0.575,0.798-1.234,0.737-2.019
		c-0.018-0.237,0.101-0.38,0.329-0.392c0.427-0.023,0.87-0.174,1.264,0.127c0.717,0.58,1.379,1.207,1.789,2.053
		c0.832,0.478,0.822-0.381,1.139-0.719c0-0.404,0-0.809,0-1.224c0.236-0.029,0.428,0.022,0.594,0.165
		c0.527-0.016,1.059,0.033,1.582-0.111c0.527-0.146,0.854,0.218,1.189,0.521c0.266,0.241,0.514,0.504,0.768,0.757
		c1.33,0.979,1.545,2.542,2.004,3.951c0.525,1.616,0.693,3.323,1.045,4.985c0.029,0.14,0.016,0.29,0.301,0.467
		c-0.113-0.896-0.189-1.687-0.318-2.47c-0.133-0.815-0.277-1.632-0.486-2.429c-0.209-0.794-0.508-1.564-0.785-2.404
		c0.277,0.182,0.457,0.38,0.557,0.65c1.527,1.535,2.543,3.413,3.551,5.299c0.131,0.245,0.123,0.385-0.141,0.513
		c-0.498,0.243-0.943,0.598-1.498,0.722c-0.389,0.215-0.727,0.565-1.244,0.424C46.461,62.74,46.469,62.919,46.441,63.064z
		 M41.209,61.916c-0.035,0.008-0.07,0.015-0.105,0.021c-0.34-1.155-0.678-2.311-1.021-3.465c-0.041-0.137-0.145-0.283,0.063-0.357
		c0.127-0.046,0.246,0.018,0.277,0.156C40.688,59.486,40.947,60.701,41.209,61.916z"/>
	<path fill="#666654" d="M36.598,52.581c0.01-0.01,0.02-0.023,0.029-0.03c-0.014-0.008-0.023-0.018-0.037-0.025
		C36.592,52.544,36.596,52.563,36.598,52.581z"/>
	<path fill="#666654" d="M50.982,89.699c0.895-0.582,1.922-1.089,2.418-2.065c0.52-1.028,1.381-1.614,2.283-2.152
		c0.873-0.521,1.391-1.282,1.557-2.191c0.334-1.827,0.441-3.688-0.264-5.468c-0.293-0.738-0.189-1.362,0.096-2.072
		c0.537-1.331,1.326-2.534,1.83-3.881c1.248-3.322,1.814-6.826,2.768-10.229c0.277-1.002,0.574-2.01,0.59-3.066
		c0.004-0.163,0.092-0.438-0.264-0.307c-0.041,1.401-0.555,2.702-0.918,4.029c-0.834,3.058-1.346,6.203-2.473,9.182
		c-0.24,0.635-0.48,1.268-0.832,1.854c-0.688,1.151-1.098,2.419-1.543,3.674c-0.412,1.161-0.465,1.152-1.629,0.781
		c-1.061-0.337-2.16-0.521-3.213-0.913c-1.232-0.459-2.406-0.994-3.469-1.772c-0.01,0-0.014,0.005-0.025,0.005l0.006-0.007
		c-0.004,0.003-0.006,0.007-0.006,0.007c0-0.006,0.002-0.012,0.002-0.017c-0.271-0.087-0.539-0.188-0.816-0.255
		c-0.379-0.09-0.834-0.43-1.105,0.088c-0.242,0.461-0.27,1.009,0.074,1.451c0.25,0.32,0.594,0.568,0.91,0.862
		c-0.4,0.165-0.801,0.315-1.189,0.495c-0.67,0.31-0.885,0.938-0.494,1.554c0.146,0.233,0.215,0.331-0.014,0.576
		c-0.588,0.624-0.533,1.365-0.236,2.108c0.064,0.167,0.279,0.289,0.098,0.509c-0.613,0.741-0.26,1.425,0.174,2.066
		c0.154,0.23,0.201,0.413,0.121,0.661c-0.502,1.547-0.598,3.161-0.813,4.756h0.42c0.195-1.623,0.414-3.256,0.74-4.91
		c2.129,2.395,4.734,2.493,7.613,1.686c-0.469,1.276-1.547,1.907-2.574,2.529c-0.379,0.229-0.752,0.462-1.129,0.695h1.014
		C50.762,89.869,50.854,89.783,50.982,89.699z M52.756,86.428c-2.033,0.85-5.166,0.203-6.475-1.423
		c0.764-0.27,1.508-0.454,2.307-0.415c0.225,0.011,0.582,0.036,0.561-0.277c-0.018-0.257-0.354-0.121-0.555-0.148
		c-0.793-0.107-1.521,0.278-2.295,0.304c-0.637,0.021-1.156-0.528-1.158-1.193c0-0.599,0.32-0.822,1.064-0.867
		c0.873-0.053,1.738-0.169,2.607-0.262c0.145-0.015,0.348-0.032,0.326-0.21c-0.025-0.202-0.215-0.2-0.406-0.182
		c-0.918,0.087-1.838,0.141-2.756,0.232c-0.523,0.052-0.805-0.189-0.834-0.676c-0.031-0.518-0.156-1.159,0.535-1.346
		c0.793-0.216,1.617-0.31,2.426-0.467c0.279-0.055,0.553-0.141,0.852-0.219c-0.131-0.37-0.389-0.243-0.557-0.189
		c-0.607,0.197-1.24,0.224-1.861,0.328c-0.459,0.078-0.832-0.086-0.969-0.547c-0.139-0.462,0.123-0.725,0.557-0.86
		c1.076-0.339,2.061-1.004,3.264-0.895c0.262,0.024,0.506-0.06,0.291-0.407c-0.004-0.001-0.01-0.002-0.016-0.002
		c-0.004-0.004-0.01-0.008-0.016-0.011c-0.611,0.063-1.229-0.017-1.844,0.188c-0.488,0.163-1.404-0.499-1.512-1.004
		c-0.049-0.234-0.1-0.518,0.063-0.705c0.182-0.205,0.408,0.025,0.598,0.078c1.002,0.279,1.836,0.889,2.695,1.442
		c0.008-0.001,0.018-0.001,0.025-0.001v-0.002c0.004,0.006,0.002,0.01,0.006,0.016c0.563,0.026,1.072,0.237,1.584,0.444
		c1.031,0.418,2.09,0.755,3.17,1.023c0.961,0.239,1.615,0.845,1.988,1.759c0.373,0.193,0.453-0.012,0.373-0.313
		c-0.055-0.205-0.186-0.397-0.316-0.57c-0.512-0.684-0.518-0.68,0.021-1.432c0.244,0.449,0.332,0.922,0.395,1.377
		c0.199,1.454,0.256,2.922-0.115,4.352c-0.223,0.859-0.729,1.578-1.609,1.938c-0.281-0.318,0.852-0.505,0.064-0.857
		C54.459,85.157,53.787,85.997,52.756,86.428z"/>
	<path fill="#666654" d="M43.285,89.963h0.285c0.328-1.414,0.549-2.836,0.838-4.242C43.867,87.094,43.611,88.537,43.285,89.963z"/>
	<path fill="#BDBDB5" d="M35.031,11.195c-0.002-0.04-0.007-0.08-0.013-0.119c-0.733,0-1.466,0-2.198,0
		c-0.006,0.04-0.011,0.08-0.013,0.12c0.007,0,0.013,0,0.02,0C33.56,11.196,34.295,11.195,35.031,11.195L35.031,11.195z"/>
	<path fill="#C7D24F" d="M16.222,27.096c0.563-0.223,1.148-0.386,1.726-0.575c4.398-1.442,8.899-2.266,13.538-2.267
		c1.758,0,3.519,0.039,5.272-0.056c3.432-0.184,6.855-0.39,10.26,0.332c1.498,0.318,1.512,0.264,1.334-1.273
		c-0.023-0.191-0.07-0.38-0.113-0.569c-0.693-3.107-2.6-5.418-4.977-7.369c-2.697-2.215-5.719-3.691-9.318-3.655
		c-0.39,0.018-0.784,0-1.167,0.061c-2.452,0.386-4.842,0.993-7.201,1.787c-3.177,1.069-5.482,3.198-7.194,5.92
		c-1.387,2.209-1.94,4.805-2.532,7.34C15.783,27.056,15.817,27.256,16.222,27.096z"/>
	<path fill="#FFFFFF" d="M40.613,87.627c-0.039-0.957,0.115-1.934,0.277-2.885c0.193-1.139,0.123-2.274,0.131-3.413
		c0.01-1.338,0.002-2.676,0.002-4.014l0,0c0,0,0,0,0-0.001c-0.201-0.168-0.385-0.369-0.609-0.497
		c-0.158-0.091-0.324-0.466-0.564-0.081c0.168,0.273-0.014,0.465-0.17,0.645c-1.842,2.131-3.459,4.442-5.398,6.504
		c-2.006,2.131-4.351,3.729-6.975,4.907c-0.884,0.396-1.968,0.437-2.984,0.353c-1.518-0.123-2.859-0.677-4.047-1.647
		c-0.639-0.522-0.923-1.304-1.503-1.858l0,0h-0.001c-0.055,0.852-0.109,1.703-0.161,2.555c-0.036,0.59-0.057,1.18-0.072,1.77h22.084
		C40.639,89.186,40.645,88.407,40.613,87.627z"/>
	<path fill="#FFFFFF" d="M30.463,62.918c0.036-0.094,0.081-0.151,0.123-0.222C30.543,62.757,30.502,62.826,30.463,62.918z"/>
	<path fill="#FFFFFF" d="M44.943,62.25c0.104-1.278,0.215-2.563,0.199-3.855c-0.02-1.711-0.324-3.314-1.289-4.758
		c-0.104-0.156-0.207-0.335-0.164-0.546c-0.254-0.253-0.502-0.516-0.768-0.757c-0.336-0.304-0.662-0.668-1.189-0.521
		c-0.523,0.145-1.055,0.096-1.582,0.111c-0.105,0.404-0.217,0.806-0.594,1.059c-0.316,0.338-0.307,1.196-1.139,0.719
		c-0.734-0.17-1.172-0.801-1.791-1.15c-0.01,0.007-0.02,0.021-0.029,0.03c0.443,3.571,1.02,7.116,1.871,10.616
		c0.252,1.033,0.289,2.116,0.529,3.152c0.162,0.697-0.15,0.732-0.66,0.689c-0.17-0.015-0.342-0.004-0.512-0.005
		c-0.729,0.339-1.563,0.198-2.3,0.554c-0.809,0.387-0.98,0.219-1.094-0.693c-0.422-3.4-0.875-6.798-1.297-10.199
		c-0.099-0.795-0.142-1.569,0.433-2.289c0.4-0.5,0.616-1.148,0.912-1.73c-0.493,0.032-0.849,0.471-1.358,0.459
		c-0.287,0.313-0.438,0.7-0.538,1.096c-0.179,0.717-0.654,0.908-1.338,0.957c-0.869,0.063-1.545-0.305-2.21-0.766
		c-0.001,0-0.002-0.001-0.003-0.002c0.001,0.001,0.001,0.002,0.002,0.003c-0.868-0.001-1.355-0.683-1.96-1.133
		c-0.748-0.56-1.438-1.196-2.154-1.8c0-0.001,0-0.001,0-0.001l0,0c-0.79,0.575-1.61,1.114-2.194,1.923
		c0.319,0.035,0.299,0.341,0.361,0.533c0.292,0.889,0.546,1.791,0.813,2.688c0.788,0.465,0.812,1.362,1.117,2.079
		c0.314,0.741,0.43,1.566,0.631,2.354c0,0.001,0.001,0.002,0.001,0.002c0-0.001,0-0.002,0-0.002c1.521-0.131,2.74,0.898,2.886,2.434
		c0.124,1.328,0.799,2.117,1.884,2.202c1.131,0.088,1.964-0.617,2.251-1.923c0.043-0.197,0.05-0.439,0.318-0.372
		c0.277,0.069,0.216,0.339,0.193,0.554c-0.13,1.281-1.298,2.303-2.611,2.285c-1.382-0.018-2.483-1.072-2.586-2.475
		c-0.103-1.408-0.811-2.129-2.104-2.164c-0.027,0.012-0.054,0.026-0.08,0.04c0.537,1.971,0.79,3.987,1.031,6.012
		c0.189,1.575,0.647,3.118,0.813,4.694c0.162,1.535,0.957,2.834,1.339,4.277c0.047,0.173,0.158,0.297,0.31,0.387
		c0.001,0,0.001,0,0.002,0c0.639-0.35,1.274-0.704,1.914-1.049c1.943-1.05,3.988-1.906,5.802-3.189
		c0.551-0.391,0.895-0.817,0.949-1.557c0.082-1.101,0.563-2.023,1.555-2.665c0.859-0.556,1.752-0.978,2.744-1.114
		c-0.137-0.469-0.242-0.893-0.385-1.304c-0.891-2.545-1.33-5.213-2.148-7.776c-0.104-0.326,0.002-0.528,0.346-0.567
		c0.291-0.032,0.672-0.091,0.645,0.347c-0.031,0.514,0.205,0.946,0.313,1.412c0.535,2.313,0.98,4.648,1.867,6.868
		c0.232,0.581,0.385,1.146,1.197,0.884c-0.049-0.471,0.031-0.943,0.213-1.355C44.824,64.765,44.842,63.488,44.943,62.25z
		 M29.216,61.916c0.178,0.021,0.229,0.148,0.22,0.31c-0.022,0.217-0.163,0.275-0.351,0.25c-0.177-0.024-0.224-0.156-0.216-0.313
		C28.878,61.934,29.034,61.895,29.216,61.916z M32.096,64.347c-0.289,0.595-0.752,1.017-1.499,0.911
		c-0.178,0.081-0.352,0.037-0.525-0.015c-0.863-0.37-1.27-0.997-1.2-1.849c0.015-0.189-0.023-0.419,0.26-0.432
		c0.335-0.016,0.313,0.24,0.306,0.455c-0.014,0.399,0.021,0.789,0.344,1.065c0.251,0.216,0.539,0.408,0.709-0.098
		c-0.277-0.212-0.579-0.376-0.595-0.814c-0.016-0.44,0.088-0.687,0.568-0.653c0.006-0.236-0.025-0.434-0.335-0.447
		c-0.18-0.008-0.228-0.152-0.215-0.315c0.016-0.19,0.152-0.22,0.308-0.234c0.701-0.065,1.307,0.139,1.736,0.705
		C32.361,63.154,32.376,63.773,32.096,64.347z M29.39,66.872c-0.162-0.01-0.266-0.105-0.278-0.264
		c-0.017-0.188,0.07-0.323,0.277-0.331c0.202-0.009,0.294,0.114,0.324,0.303C29.688,66.767,29.593,66.883,29.39,66.872z
		 M31.837,66.867c-0.196,0.025-0.321-0.083-0.34-0.283c-0.016-0.171,0.086-0.281,0.241-0.304c0.195-0.028,0.315,0.078,0.342,0.279
		C32.083,66.729,31.995,66.846,31.837,66.867z"/>
	<path fill="#FFEBC1" d="M37.123,46.519c1.908-0.399,3.719-1.093,5.152-2.403c1.416-1.295,2.213-3.044,2.863-4.846
		c0.557-1.536,0.512-3.149,0.721-4.73c0.188-1.42,0.391-2.84,0.424-4.276c-0.811-0.05-1.572,0.295-2.379,0.298
		c-1.168,0.005-2.334-0.12-3.492-0.206c-1.238-0.092-2.479-0.061-3.719-0.199c-1.597-0.178-3.159-0.516-4.729-0.81
		c-0.525-0.099-0.866-0.014-1.256,0.307c-1.587,1.306-3.39,2.208-5.409,2.582c-0.996,0.185-2.023,0.292-3.05,0.228
		c-0.386-0.024-0.542,0.023-0.471,0.513c0.084,0.565-0.069,1.152-0.369,1.671c-0.004,1.474,0.386,2.888,0.763,4.285
		c0.557,2.066,1.42,4.007,3.407,5.127C29.165,46.078,32.911,47.402,37.123,46.519z M44.979,36.597
		c0.021,0.761-0.455,1.284-1.17,1.287c-0.658,0.002-1.303-0.581-1.32-1.194c-0.02-0.698,0.477-1.142,1.283-1.148
		C44.482,35.534,44.961,35.954,44.979,36.597z M42.123,32.601c0.449,0.042,0.813,0.303,0.805,0.943
		c-0.006,0.622-0.314,0.943-0.951,0.904c-0.525-0.033-1.039-0.159-1.084-0.825C40.857,33.102,41.43,32.589,42.123,32.601z
		 M35.094,35.118c0.396-0.374,1.197-0.294,1.683,0.127c0.73,0.857,0.656,1.248-0.301,1.596c-0.578,0.242-1.385,0.06-1.638-0.411
		C34.575,35.943,34.711,35.48,35.094,35.118z M25.258,38.467c-0.736-0.013-1.635-0.838-1.646-1.51
		c-0.012-0.725,0.809-1.418,1.674-1.415c1.005,0.003,1.69,0.557,1.672,1.351C26.939,37.728,26.126,38.481,25.258,38.467z
		 M28.345,34.662c-0.658-0.01-0.964-0.301-0.946-0.908c0.018-0.588,0.28-0.973,0.906-0.991c0.538-0.016,1.146,0.561,1.087,1.049
		C29.321,34.408,28.955,34.7,28.345,34.662z M30.296,40.988c-0.013-0.938-0.042-1.883,0.274-2.859
		c-0.003,1.277,0.876,1.008,1.593,1.084c2.124,0.225,4.231,0.018,6.344-0.153c0.58-0.047,1.082-0.087,0.938-0.882
		c-0.027-0.163,0.029-0.365,0.229-0.408c0.158-0.034,0.191,0.117,0.189,0.241c-0.031,1.501,0.119,3.017-0.586,4.441
		c-0.67,1.357-1.809,2.047-3.223,2.218c-1.418,0.172-2.884,0.271-4.152-0.643C30.873,43.285,30.313,42.267,30.296,40.988z"/>
	<path fill="#FFEBC1" d="M43.945,67.756c-0.957-0.053-1.914,0.019-2.811,0.336c-1.494,0.53-2.76,1.407-2.865,3.137
		c-0.063,1.045-0.514,1.653-1.344,2.121c-0.254,0.145-0.486,0.323-0.744,0.462c-2.583,1.399-5.179,2.779-7.754,4.196
		c-1.472,0.809-2.95,1.588-4.598,1.98c-0.258,0.061-0.503,0.172-0.903-0.001c0.615-0.214,1.123-0.403,1.639-0.566
		c0.391-0.124,0.548-0.283,0.386-0.74c-0.224-0.638-0.342-1.312-0.505-1.97c0-0.001,0-0.001-0.001-0.001
		c-2.284,0.767-4.288-0.065-6.253-1.11c-0.202-0.106-0.344-0.365-0.635-0.26c0.36,1.32,0.82,2.603,1.294,3.889
		c0.604,1.635,1.344,3.154,2.401,4.521c1.488,1.922,4.42,2.646,6.166,1.895c1.7-0.732,3.274-1.714,4.8-2.759
		c2.81-1.922,5.333-4.166,7.508-6.79c0.439-0.229,0.91-0.29,1.396-0.27c1.592,0.068,2.756-0.575,3.42-2.051
		c0.002-0.002,0.002-0.005,0.004-0.008c0.191-0.365,0.311-0.748,0.354-1.164c0.115-1.086,0.252-2.17,0.385-3.254
		C45.404,68.375,44.932,67.811,43.945,67.756z"/>
	<path fill="#FFFFFF" d="M59.254,60.176c-1.951,1.428-3.971,2.708-6.43,3.103c-0.781,0.125-1.584,0.289-2.254,0.776
		c-0.266,0.195-0.623,0.351-0.607,0.757c0.051,1.405-0.373,2.74-0.6,4.104c-0.316,1.888-0.672,3.771-1.018,5.653
		c-0.041,0.228-0.078,0.478-0.355,0.521c-0.01,0.001-0.02,0.004-0.029,0.005c-0.016,0.002-0.023,0.008-0.041,0.008
		c1.063,0.778,2.236,1.313,3.469,1.772c1.053,0.393,2.152,0.576,3.213,0.913c1.164,0.371,1.217,0.38,1.629-0.781
		c0.445-1.255,0.855-2.522,1.543-3.674c0.352-0.587,0.592-1.22,0.832-1.854c1.127-2.979,1.639-6.124,2.473-9.182
		c0.363-1.327,0.877-2.628,0.918-4.029c0-0.001,0-0.001,0-0.001l-0.041-0.039h-0.002c-0.23,0.015-0.422,0.128-0.576,0.28
		C60.732,59.146,59.979,59.646,59.254,60.176z"/>
	<path fill="#FFFFFF" d="M47.908,75.094L47.908,75.094c0,0-0.004,0.004-0.008,0.007l-0.006,0.007c0.012,0,0.016-0.005,0.025-0.005
		C47.916,75.1,47.912,75.097,47.908,75.094L47.908,75.094z"/>
	<path fill="#FFFFFF" d="M23.797,56.842c-0.014,0.028-0.027,0.057-0.042,0.086C23.781,56.904,23.791,56.874,23.797,56.842z"/>
	<path fill="#FFFFFF" d="M23.755,56.928c-0.252-1.195-0.867-2.283-1.045-3.501c-0.2,0.167-0.413,0.321-0.597,0.505
		c-1.46,1.449-2.673,3.089-3.769,4.825c-2.318,3.666-3.779,7.641-4.364,11.938c0.183-0.003,0.382-0.082,0.527,0.104
		c-0.001,0-0.001,0-0.001,0.001h0.001c3.341,0.868,6.715,1.06,10.123,0.481c0.626-0.105,1.057-0.299,1.009-1.141
		c-0.176-3.138-0.197-6.286-0.854-9.379c-0.41-0.842-0.547-1.766-0.716-2.668C23.994,57.689,23.776,57.336,23.755,56.928z"/>
	<path fill="#FFEBC1" d="M56.191,80.901c-0.031-0.311,0.148-0.644,0.23-0.966c-0.373-0.914-1.027-1.52-1.988-1.759
		c-1.08-0.269-2.139-0.605-3.17-1.023c-0.512-0.207-1.021-0.418-1.584-0.444c0.215,0.348-0.029,0.432-0.291,0.407
		c-1.203-0.109-2.188,0.556-3.264,0.895c-0.434,0.136-0.695,0.398-0.557,0.86c0.137,0.461,0.51,0.625,0.969,0.547
		c0.621-0.104,1.254-0.131,1.861-0.328c0.168-0.054,0.426-0.181,0.557,0.189c-0.299,0.078-0.572,0.164-0.852,0.219
		c-0.809,0.157-1.633,0.251-2.426,0.467c-0.691,0.187-0.566,0.828-0.535,1.346c0.029,0.486,0.311,0.728,0.834,0.676
		c0.918-0.092,1.838-0.146,2.756-0.232c0.191-0.019,0.381-0.021,0.406,0.182c0.021,0.178-0.182,0.195-0.326,0.21
		c-0.869,0.093-1.734,0.209-2.607,0.262c-0.744,0.045-1.064,0.269-1.064,0.867c0.002,0.665,0.521,1.214,1.158,1.193
		c0.773-0.025,1.502-0.411,2.295-0.304c0.201,0.027,0.537-0.108,0.555,0.148c0.021,0.313-0.336,0.288-0.561,0.277
		c-0.799-0.039-1.543,0.146-2.307,0.415c1.309,1.626,4.441,2.272,6.475,1.423c1.031-0.431,1.703-1.271,2.479-1.998
		C55.916,83.353,56.33,82.213,56.191,80.901z"/>
	<path fill="#FFEBC1" d="M49.674,76.695L49.674,76.695l-0.01,0.012c0.006,0,0.012,0.001,0.016,0.002
		c-0.004-0.006-0.002-0.01-0.006-0.016V76.695z"/>
	<path fill="#FFFFFF" d="M45.297,84.546c-0.434-0.642-0.787-1.325-0.174-2.066c0.182-0.22-0.033-0.342-0.098-0.509
		c-0.297-0.743-0.352-1.484,0.236-2.108c0.229-0.245,0.16-0.343,0.014-0.576c-0.391-0.616-0.176-1.244,0.494-1.554
		c0.389-0.18,0.789-0.33,1.189-0.495c-0.316-0.294-0.66-0.542-0.91-0.862c-0.344-0.442-0.316-0.99-0.074-1.451
		c0.271-0.518,0.727-0.178,1.105-0.088c0.277,0.066,0.545,0.168,0.816,0.255c0-0.003,0.002-0.005,0.002-0.008
		c-0.006-0.007-0.008-0.015-0.014-0.021c0.006,0.002,0.01,0.005,0.016,0.007c0.322-1.875,0.65-3.748,0.963-5.625
		c0.252-1.508,0.666-2.984,0.809-4.517c0.055-0.581-0.15-0.97-0.625-1.11c-0.436-0.129-0.893-0.642-1.348-0.252
		c-0.404,0.349-0.672,0.502-1.09-0.311c-1.254,9.152-3.363,17.889-4.848,26.709h0.436c0.578-2.432,1.281-4.832,1.912-7.253
		c-0.35,2.479-1.012,4.881-1.793,7.253h0.969c0.326-1.426,0.582-2.869,1.123-4.242c-0.289,1.406-0.51,2.828-0.838,4.242h1.035
		c0.215-1.595,0.311-3.209,0.813-4.756C45.498,84.959,45.451,84.776,45.297,84.546z"/>
	<path fill="#FFFFFF" d="M47.908,75.094c-0.004-0.001-0.008-0.002-0.012-0.003c0,0.005-0.002,0.011-0.002,0.017
		c0,0,0.002-0.004,0.006-0.007S47.908,75.094,47.908,75.094L47.908,75.094z"/>
	<path fill="#A2A838" d="M35.211,24.569c-1.584-0.011-3.149,0.222-4.726,0.266c-1.509,0.043-3.012,0.05-4.513,0.293
		c-3.144,0.509-6.22,1.278-9.268,2.182c-0.421,0.124-0.613,0.324-0.58,0.771c0.069,0.915,0.11,1.831,0.166,2.78
		c0.984-1.743,1.227-1.9,2.906-1.917c0.001,0,0.001,0,0.002,0c0.959-0.796,2.146-1.172,3.233-1.726
		c0.403-0.205,0.858-0.31,1.288-0.459c0,0,0,0,0,0.001c0,0,0.001,0,0.001-0.001c0.085-0.206-0.066-0.497,0.26-0.646
		c0.024,0.174,0.047,0.333,0.069,0.494c0.37-0.276,0.706-0.231,1.126-0.028c1.075,0.522,2.136,1.138,3.403,1.055
		c0.304-0.252,0.499-0.573,0.643-0.936c-1.112-0.434-2.353-0.411-3.312-1.178c0.953,0.387,1.983,0.387,2.962,0.627
		c0.088-0.043,0.18-0.051,0.273-0.044c0.623-0.094,1.24,0.095,1.862,0.103c1.062,0.014,2.122,0.228,3.184,0.24
		c3.096,0.036,6.194,0.023,9.292,0.008c0.975-0.005,1.943,0.128,2.91,0.13c1.334,0.003,2.666-0.178,4.004-0.135
		c-0.592-0.332-1.148-0.792-1.783-0.972c-1.986-0.563-4.023-0.92-6.098-0.934C40.082,24.526,37.646,24.586,35.211,24.569z"/>
	<path fill="#E4E8B8" d="M20.276,87.497c1.188,0.971,2.529,1.524,4.047,1.647c1.017,0.084,2.101,0.044,2.984-0.353
		c2.624-1.178,4.969-2.776,6.975-4.907c1.939-2.062,3.556-4.373,5.398-6.504c0.156-0.18,0.338-0.371,0.17-0.645
		c-0.383,0.407-0.781,0.803-1.148,1.225c-2.695,3.088-6.005,5.377-9.542,7.375c-0.609,0.344-1.208,0.744-1.907,0.896
		c-2.389,0.518-5.32-0.359-6.892-3.111c-0.447-0.784-1.041-1.479-1.395-2.328c-0.052,1.637-0.317,3.234-0.193,4.846l0,0
		C19.353,86.193,19.637,86.975,20.276,87.497z"/>
	<path fill="#F0B265" d="M21.779,32.975c-0.071-0.49,0.085-0.538,0.471-0.513c1.026,0.064,2.054-0.043,3.05-0.228
		c2.02-0.374,3.822-1.276,5.409-2.582c0.39-0.321,0.73-0.405,1.256-0.307c1.57,0.294,3.132,0.632,4.729,0.81
		c1.24,0.138,2.48,0.106,3.719,0.199c1.158,0.086,2.324,0.211,3.492,0.206c0.807-0.003,1.568-0.349,2.379-0.298
		c0.012-0.169,0.004-0.343,0.033-0.51c0.123-0.701-0.176-0.976-0.869-0.945c-0.436,0.02-0.875-0.029-1.313-0.072
		c-0.35-0.034-0.697-0.204-1.01,0.149c-0.082,0.093-0.334,0.093-0.488,0.055c-0.559-0.141-1.084-0.127-1.635,0.074
		c-0.273,0.1-0.807,0.012-0.799-0.257c0.012-0.603-0.357-0.493-0.682-0.524c-2.977-0.283-5.954-0.593-8.871-1.249
		c-0.848-0.191-1.244-0.018-1.515,0.794c0.305,0,0.592,0.001,0.877,0c0.398-0.001,0.946,0.031,0.941,0.455
		c-0.007,0.503-0.568,0.31-0.89,0.276c-1.042-0.108-1.83,0.194-2.578,0.999c-1.292,1.391-2.924,2.137-4.893,1.965
		c-0.581-0.051-1.104,0.417-1.14,0.934c-0.917-1.453-2.295-1.798-3.188-0.771c1.164,0.745,2.117,1.695,2.755,3.053
		c0.138-0.389-0.009-0.68,0.304-1c0.035,0.405,0.061,0.681,0.084,0.958C21.709,34.127,21.863,33.541,21.779,32.975z"/>
	<path fill="#C7D24F" d="M16.106,47.697c0.654-0.72,0.954-1.588,1.037-2.54c0.119-1.345-0.275-2.624-0.517-3.922
		c-0.035-0.188-0.04-0.381-0.06-0.572c-0.985-1.923-2.108-3.78-2.784-5.851c-1.239-2.946-1.036-5.765,0.741-8.445
		c0.04-0.062,0.078-0.123,0.117-0.184c-0.928,0.086-1.588,0.705-2.293,1.201c-2.537,1.786-3.333,5.51-1.808,8.219
		c0.758,1.346,1.652,2.603,2.716,3.705c1.491,1.544,2.666,3.222,3.037,5.382C16.468,45.712,16.533,46.718,16.106,47.697
		L16.106,47.697c0.002-0.002,0.004-0.004,0.006-0.007L16.106,47.697z"/>
	<path fill="#C7D24F" d="M38.998,66.35c-0.24-1.036-0.277-2.119-0.529-3.152c-0.852-3.5-1.428-7.045-1.871-10.616
		c-0.002-0.019-0.006-0.037-0.008-0.056c-0.189-0.301-0.166-0.594,0.039-0.877c-0.395-0.301-0.837-0.15-1.264-0.127
		c-0.229,0.012-0.347,0.154-0.329,0.392c0.061,0.784-0.316,1.443-0.737,2.019c-0.786,1.076-0.895,2.213-0.592,3.449
		c0.059,0.236,0.114,0.477,0.132,0.717c0.213,2.957,0.726,5.878,1.026,8.822c0.036,0.35,0.147,0.426,0.454,0.279
		c0.555-0.266,1.167-0.316,1.751-0.473c0.375-0.1,0.607-0.053,0.756,0.308c0.17,0.001,0.342-0.01,0.512,0.005
		C38.848,67.082,39.16,67.047,38.998,66.35z M34.872,56.956c0.014-0.479,0.588-1.093,0.991-1.065
		c0.514,0.034,1.106,0.576,1.053,1.008c-0.078,0.641-0.535,0.795-1.258,0.76C35.357,57.621,34.854,57.631,34.872,56.956z
		 M37.047,64.559c-0.555-0.002-0.875-0.258-0.857-0.834c0.016-0.511,0.676-1.254,1.066-1.225c0.402,0.031,0.734,0.498,0.721,1.017
		C37.961,64.199,37.639,64.561,37.047,64.559z"/>
	<path fill="#666654" d="M47.949,75.09c-0.018-0.006-0.033-0.014-0.049-0.021c-0.006-0.002-0.01-0.005-0.016-0.007
		c0.006,0.007,0.008,0.015,0.014,0.021c0,0.002,0.002,0.003,0.002,0.005C47.92,75.091,47.932,75.088,47.949,75.09z"/>
	<path fill="#E4E8B8" d="M28.984,76.631c-0.382-1.443-1.177-2.742-1.339-4.277c-0.165-1.576-0.623-3.119-0.813-4.694
		c-0.241-2.024-0.494-4.041-1.031-6.012c-0.005-0.015-0.008-0.031-0.012-0.046c-0.15-0.15-0.161-0.338-0.14-0.533
		c0,0-0.001-0.001-0.001-0.002c-0.201-0.788-0.316-1.613-0.631-2.354c-0.306-0.717-0.329-1.614-1.117-2.079
		c-0.034,0.07-0.068,0.14-0.104,0.209c-0.007,0.032-0.017,0.063-0.042,0.086c0.021,0.408,0.238,0.762,0.314,1.166
		c0.169,0.902,0.306,1.826,0.716,2.668c0.396,0.018,0.324,0.376,0.396,0.595c0.407,1.255,0.587,2.556,0.654,3.867
		c0.133,2.624,0.427,5.249,0.069,7.878c-0.094,0.693-0.318,1.232-1.176,1.141c-0.231-0.025-0.46,0-0.372,0.35
		c0.332,1.316,0.672,2.631,0.981,3.952c0.103,0.437,0.305,0.4,0.63,0.261c1.162-0.499,2.233-1.163,3.326-1.786
		c-0.001-0.001-0.001-0.001-0.002-0.001C29.142,76.928,29.031,76.804,28.984,76.631z"/>
	<path fill="#68B545" d="M46.908,28.938c-0.127,0.032-0.289,0.076-0.252,0.203c0.143,0.49-0.156,1.074,0.381,1.488
		c0.791,0.611,0.979,1.461,0.813,2.607c-0.197-0.832-0.236-1.529-0.672-2.084c-0.105-0.135-0.203-0.314-0.393-0.28
		c-0.221,0.041-0.18,0.264-0.186,0.423c-0.029,0.707-0.186,1.396-0.27,2.094c-0.092,0.769-0.33,1.528-0.283,2.431
		c0.475-0.503,0.664-1.081,1.207-1.375c-0.752,1.109-1.387,2.244-1.367,3.615c0.004,0.258-0.34,0.553,0.047,0.781
		c0.332,0.197,0.529-0.05,0.76-0.231c0.377-0.294,0.859-0.467,1.27-0.264c0.67,0.332,0.986,0.328,1.385-0.302
		c0.414-0.656,0.611-1.396,0.758-2.148c0.371-1.901-0.027-3.724-0.592-5.523C49.182,29.313,47.967,28.668,46.908,28.938z"/>
	<path fill="#C7D24F" d="M31.652,49.018c-0.004-0.003-0.006-0.006-0.01-0.008c0,0.006,0,0.012,0,0.018L31.652,49.018z"/>
	<path fill="#C7D24F" d="M28.988,53.599c0.568,0.846,1.394,1.162,2.39,1.132c0.418-0.012,0.701-0.179,0.822-0.58
		c0.338-1.096,0.93-2.016,1.894-2.699c-0.801-0.592-1.569-1.148-2.326-1.721c-0.748-0.567-1.101-1.498-0.916-2.374
		c0.325,0.528,0.194,1.268,0.791,1.653c0.003-0.214,0.006-0.428,0.006-0.641c-0.002-1.325-0.468-1.619-1.745-1.104
		c-0.159,0.063-0.314,0.137-0.461,0.222c-0.783,0.453-1.492,1.001-2.183,1.588c-0.47,0.399-0.466,0.778-0.233,1.274
		C27.568,51.502,28.282,52.548,28.988,53.599z"/>
	<path fill="#A2A838" d="M16.866,34.814c-0.41-0.508-0.71-1.144-0.722-1.806c-0.029-1.459-0.535-2.876-0.257-4.472
		c-0.445,0.224-0.634,0.472-0.813,0.727c-1.379,1.963-1.419,4.069-0.636,6.246c0.438,1.215,1.065,2.344,1.681,3.478
		c0.706,1.301,1.48,2.578,1.813,4.04c0.206,0.904,0.308,1.83,0.137,2.77c0.122-0.202,0.194-0.404,0.25-0.611
		c0.572-2.157,0.506-4.327,0.081-6.494C18.13,37.309,17.787,35.957,16.866,34.814z"/>
	<path fill="#C7D24F" d="M43.484,26.452c-3.098,0.015-6.195,0.028-9.292-0.008c-1.062-0.012-2.122-0.226-3.184-0.24
		c-0.622-0.008-1.239-0.197-1.862-0.103c-0.091,0.014-0.182,0.016-0.273,0.044c0.447,0.104,0.893,0.225,1.346,0.312
		c2.267,0.437,4.555,0.73,6.847,0.984c2.443,0.27,4.891,0.486,7.328,0.789c1.701,0.21,3.41,0.097,5.113,0.218
		c1.234,0.088,2.508,0.209,3.816-0.331c-1.035-0.591-1.98-1.13-2.926-1.67c-1.338-0.043-2.67,0.138-4.004,0.135
		C45.428,26.58,44.459,26.447,43.484,26.452z"/>
	<path fill="#FFFFFF" d="M53.379,86.738c-2.879,0.808-5.484,0.709-7.613-1.686c-0.326,1.654-0.545,3.287-0.74,4.91h4.65
		c0.377-0.233,0.75-0.467,1.129-0.695C51.832,88.646,52.91,88.015,53.379,86.738z"/>
	<path fill="#FFFFFF" d="M51.902,61.701c-1.125,0.474-2.252,0.947-3.404,1.432c0.639,0.393,1.111,0.14,1.604-0.167
		c1.398-0.872,2.918-1.497,4.445-2.11c-1.576,1.109-3.477,1.645-4.992,2.737c0.508,0.798,0.879,0.176,1.313-0.031
		c0.303-0.145,0.631-0.247,0.955-0.337c1.73-0.481,3.504-0.855,5.016-1.898c1.184-0.814,2.348-1.654,3.525-2.48
		c0.291-0.204,0.525-0.323,0.053-0.662c-0.215-0.153-0.305-0.177-0.523-0.123c-0.25,0.063-0.604,0.189-0.74-0.084
		c-0.182-0.364-0.389-0.26-0.621-0.156c-0.482,0.214-0.859,0.244-0.844-0.627c-2.936,2.604-6.48,3.857-9.695,5.709
		C49.35,62.66,50.512,61.836,51.902,61.701z"/>
	<path fill="#C7D24F" d="M13.981,70.694L13.981,70.694c-0.076,0.628-0.1,1.269-0.249,1.878c-0.095,0.388,0.083,0.479,0.344,0.57
		c0.783,0.276,1.589,0.47,2.421,0.49c2.461,0.06,4.924,0.105,7.387,0.14c1.571,0.022,1.725-0.17,1.652-1.771
		c-0.018-0.382-0.164-0.474-0.495-0.389c-2.209,0.567-4.447,0.464-6.683,0.247c-1.28-0.123-2.539-0.41-3.783-0.738
		c-0.146-0.038-0.564-0.109-0.067-0.321c0-0.001,0-0.001,0.001-0.001C14.363,70.612,14.164,70.691,13.981,70.694z"/>
	<path fill="#E4E8B8" d="M47.918,62.375c0.104-1.854-0.586-3.5-1.316-5.14c-0.207-0.461-0.539-0.869-0.596-1.394
		c-0.1-0.271-0.279-0.469-0.557-0.65c0.277,0.84,0.576,1.61,0.785,2.404c0.209,0.797,0.354,1.613,0.486,2.429
		c0.129,0.783,0.205,1.574,0.318,2.47c-0.285-0.177-0.271-0.327-0.301-0.467c-0.352-1.662-0.52-3.369-1.045-4.985
		c-0.459-1.409-0.674-2.972-2.004-3.951c-0.043,0.211,0.061,0.39,0.164,0.546c0.965,1.443,1.27,3.047,1.289,4.758
		c0.016,1.293-0.096,2.577-0.199,3.855c-0.102,1.238-0.119,2.515-0.637,3.701c-0.182,0.412-0.262,0.885-0.213,1.355
		c0.521,0.094,0.967,0.37,1.426,0.65c0.314-1.665,0.621-3.277,0.922-4.893c0.027-0.146,0.02-0.324,0.232-0.266
		C47.191,62.94,47.529,62.59,47.918,62.375z"/>
	<path fill="#E4E8B8" d="M43.594,77.885c-0.92-0.039-1.793-0.11-2.57-0.569l0,0c0,1.338,0.008,2.676-0.002,4.014
		c-0.008,1.139,0.063,2.274-0.131,3.413c-0.162,0.951-0.316,1.928-0.277,2.885c0.031,0.78,0.025,1.559,0.01,2.336h0.643
		c0.43-2.029,0.994-4.035,1.182-6.114C42.625,81.847,43.07,79.878,43.594,77.885z"/>
	<path fill="#EDB065" d="M18.192,75.6c1.965,1.045,3.969,1.877,6.253,1.11c0.001,0,0.001,0,0.001,0
		c-0.104-0.595-0.226-1.187-0.308-1.784c-0.069-0.509-0.273-0.717-0.839-0.707c-1.604,0.025-3.213,0.021-4.814-0.063
		c-1.323-0.068-1.32-0.125-0.928,1.184C17.848,75.234,17.99,75.493,18.192,75.6z"/>
	<path fill="#C7D24F" d="M25.177,26.578c-0.42-0.204-0.756-0.248-1.126,0.028c-0.222,1.592-0.888,3.034-1.622,4.58
		c1.482-0.585,2.606-1.464,3.65-2.474c-0.583,1.086-1.579,1.717-2.526,2.409c2.241-0.348,3.762-1.734,5.027-3.488
		C27.313,27.716,26.252,27.1,25.177,26.578z"/>
	<path fill="#C7D24F" d="M35.973,51.072c0.605-0.078,1.003,0.258,1.4,0.64c0.488,0.47,1.002,0.912,1.557,1.413
		c0.104-0.635,0.414-1.26,0.195-2.034c-0.248-0.876-0.879-1.497-1.291-2.259c-0.424-0.782-1.145-1.167-1.911-1.505
		c-0.183-0.081-0.388-0.146-0.548-0.005c-0.17,0.152-0.116,0.381-0.019,0.545c0.539,0.899,0.487,1.861,0.295,2.828
		C35.586,51.023,35.701,51.106,35.973,51.072z"/>
	<path fill="#68B545" d="M41.596,48.435c-0.172,0-0.344-0.013-0.512,0.003c-1.648,0.157-2.117,0.797-1.719,2.256
		c0.137,0.506,0.459,0.75,0.916,0.8c0.68,0.075,1.369,0.038,1.998-0.262c0.57-0.271,1.156-0.576,1.223-1.313
		C43.594,48.917,42.963,48.435,41.596,48.435z"/>
	<path fill="#FDEAC0" d="M21.203,31.458c-0.105-0.973-1.263-2.023-2.247-2.084c-1.088-0.066-1.736,0.315-2.075,1.337
		c-0.708,2.139-0.352,3.354,1.271,5.006c0.683,0.694,1.624,0.714,2.537,0.629c0.209-0.02,0.497-0.063,0.535-0.379
		c-0.144-0.164-0.279-0.019-0.409-0.008c-2.771,0.213-3.69-2.439-3.083-4.16c0.281-0.801,0.757-1.082,1.609-1.096
		C20.064,30.691,20.635,31.028,21.203,31.458z"/>
	<path fill="#C7D24F" d="M22.433,27.218c-1.088,0.554-2.274,0.93-3.233,1.726c-0.001,0-0.001,0-0.002,0.001
		c1.099,0.486,2.08,1.104,2.529,2.448c1.014-1.521,1.649-3.014,1.994-4.633c0,0,0,0,0-0.001
		C23.292,26.908,22.836,27.013,22.433,27.218z"/>
	<path fill="#A2A838" d="M13.783,34.813c-0.033-0.314-0.068-0.627-0.097-0.941c-0.189-1.999,0.169-3.843,1.635-5.318
		c0.375-0.376,0.813-0.61,0.154-1.098c-0.162-0.119-0.136-0.389-0.073-0.556c0.332-0.882-0.21-0.796-0.761-0.715
		c-0.039,0.061-0.077,0.122-0.117,0.184C12.747,29.048,12.543,31.867,13.783,34.813z"/>
	<path fill="#A2A838" d="M21.087,36.731c-0.87,0.282-1.713-0.043-2.729-0.158c1.133,1.619,2.104,3.17,3.952,4.102
		c-0.473-1.28-0.767-2.472-0.935-3.692C21.353,36.815,21.246,36.68,21.087,36.731z"/>
	<path fill="#FFFFFF" d="M47.918,62.375c0.555-0.124,1-0.479,1.498-0.722c0.264-0.128,0.271-0.268,0.141-0.513
		c-1.008-1.886-2.023-3.764-3.551-5.299c0.057,0.524,0.389,0.933,0.596,1.394C47.332,58.875,48.021,60.521,47.918,62.375z"/>
	<path fill="#ECB166" d="M41.123,75.826c-0.486-0.021-0.957,0.041-1.396,0.27c0.477-0.034,0.824,0.207,1.154,0.512
		c0.709,0.653,1.559,0.826,2.494,0.723c0.271-0.029,0.453-0.107,0.535-0.385c0.309-1.039,0.678-2.068,0.637-3.177
		c0,0.003-0.002,0.005-0.004,0.007C43.879,75.251,42.715,75.895,41.123,75.826z"/>
	<path fill="#EDB266" d="M34.969,49.311L34.969,49.311c-0.033-0.237-0.09-0.475-0.097-0.713c-0.035-1.441-0.031-1.477-1.487-1.465
		c-0.503,0.004-1.155-0.402-1.435-0.043c-0.233,0.301-0.002,0.963,0.021,1.465c0.729,0.346,1.37,0.867,2.227,0.966
		C34.534,49.559,34.746,49.507,34.969,49.311z"/>
	<path fill="#F0B064" d="M20.901,35.465c-0.396-1.172-1.449-2.641-2.401-3.313c-0.134-0.095-0.383-0.411-0.469,0.03
		C17.694,33.904,18.689,35.866,20.901,35.465z"/>
	<path fill="#E3E7B8" d="M27.075,53.29c0.604,0.45,1.092,1.132,1.96,1.133c-0.001-0.001-0.001-0.002-0.002-0.003
		c-0.557-0.844-1.103-1.695-1.676-2.528c-0.335-0.485-0.416-1.383-0.927-1.419c-0.466-0.035-0.981,0.607-1.475,0.953
		c-0.018,0.014-0.023,0.042-0.035,0.063c0,0,0,0,0,0.001C25.637,52.094,26.327,52.73,27.075,53.29z"/>
	<path fill="#EBB066" d="M55.234,84.43c0.787,0.353-0.346,0.539-0.064,0.857c0.881-0.359,1.387-1.078,1.609-1.938
		c0.371-1.43,0.314-2.897,0.115-4.352c-0.063-0.455-0.15-0.928-0.395-1.377c-0.539,0.752-0.533,0.748-0.021,1.432
		c0.131,0.173,0.262,0.365,0.316,0.57c0.08,0.301,0,0.506-0.373,0.313c-0.082,0.322-0.262,0.655-0.23,0.966
		C56.33,82.213,55.916,83.353,55.234,84.43z"/>
	<path fill="#FDEABF" d="M31.643,49.027c0.006,0,0.009-0.004,0.015-0.005c-0.001-0.002-0.003-0.003-0.005-0.005L31.643,49.027z"/>
	<path fill="#FDEABF" d="M31.658,49.022c0.633,0.817,1.565,1.255,2.364,1.859c0.804,0.608,1.064,0.491,1.315-0.521
		c0.011-0.304-0.066-0.571-0.308-0.776c0,0,0,0,0.001,0c-0.021-0.092-0.04-0.183-0.061-0.273h-0.001
		c-0.224,0.196-0.436,0.248-0.771,0.21c-0.856-0.099-1.497-0.62-2.227-0.966C31.936,48.759,31.924,48.979,31.658,49.022z"/>
	<path fill="#E1E4B7" d="M47.367,38.623c-0.277,0.007-0.551,0.07-0.613,0.392c-0.041,0.212-0.02,0.437-0.018,0.656
		c0.045,2.283,0.082,4.565-0.688,6.787c0.385-0.304,0.549-0.737,0.686-1.173c0.639-2.032,0.506-4.177,0.887-6.249
		C47.652,38.854,47.676,38.615,47.367,38.623z"/>
	<path fill="#A2A837" d="M16.626,41.235c0.241,1.298,0.636,2.577,0.517,3.922c-0.083,0.952-0.383,1.82-1.037,2.54l0.006-0.007
		c0.405,0.3,0.486-0.308,0.793-0.283c-0.001,0.001-0.001,0.002-0.002,0.003c0.001-0.001,0.002-0.002,0.003-0.003
		c0.256-0.179,0.341-0.467,0.438-0.734c0.779-2.135,0.438-4.129-0.777-6.01C16.586,40.854,16.591,41.047,16.626,41.235z"/>
	<path fill="#FCE9BF" d="M46.355,75.176c-0.162,0.188-0.111,0.471-0.063,0.705c0.107,0.505,1.023,1.167,1.512,1.004
		c0.615-0.205,1.232-0.126,1.844-0.188c-0.859-0.554-1.693-1.163-2.695-1.442C46.764,75.201,46.537,74.971,46.355,75.176z"/>
	<path fill="#FCE9BF" d="M49.674,76.695c-0.008,0-0.018,0-0.025,0.001c0.006,0.003,0.012,0.007,0.016,0.011L49.674,76.695
		L49.674,76.695z"/>
	<path fill="#DFE1B4" d="M50.391,31.2c-0.068-0.122-0.148-0.175-0.27-0.197c0.512,1.589,0.535,3.231,0.486,4.888
		c0.631-0.813,1.199-1.623,0.852-2.707c-0.021,0.092-0.043,0.185-0.088,0.393C51.09,32.693,50.797,31.923,50.391,31.2z"/>
	<path fill="#E2E6B6" d="M36.59,52.525c0.014,0.008,0.023,0.018,0.037,0.025c0.619,0.35,1.057,0.98,1.791,1.15
		c-0.41-0.846-1.072-1.473-1.789-2.053C36.424,51.932,36.4,52.225,36.59,52.525z"/>
	<path fill="#F6F7F3" d="M50.121,31.002c0.121,0.022,0.201,0.075,0.27,0.197c0.406,0.723,0.699,1.494,0.98,2.377
		c0.045-0.208,0.066-0.301,0.088-0.393c-0.08-1.125-0.561-2.035-1.438-2.779C49.902,30.672,50.076,30.822,50.121,31.002
		L50.121,31.002z"/>
	<path fill="#E0E3B5" d="M34.643,51.801c-0.765,0.177-1.2,0.689-1.521,1.334c0.51,0.012,0.865-0.427,1.358-0.459
		C34.6,52.402,34.782,52.141,34.643,51.801z"/>
	<path fill="#D5A466" d="M40.145,58.115c-0.207,0.074-0.104,0.221-0.063,0.357c0.344,1.154,0.682,2.31,1.021,3.465
		c0.035-0.007,0.07-0.014,0.105-0.021c-0.262-1.215-0.521-2.43-0.787-3.645C40.391,58.133,40.271,58.069,40.145,58.115z"/>
	<path fill="#D4A569" d="M42.781,66.999c-0.193-0.571-0.406-1.138-0.609-1.704c-0.043,0.046-0.088,0.092-0.131,0.139
		c0.146,0.56,0.297,1.117,0.436,1.679c0.031,0.132,0.068,0.237,0.223,0.212C42.965,67.283,42.813,67.098,42.781,66.999z"/>
	<path fill="#DADEB0" d="M40.15,51.924c-0.166-0.143-0.357-0.194-0.594-0.165c0,0.415,0,0.819,0,1.224
		C39.934,52.729,40.045,52.328,40.15,51.924z"/>
	<path fill="#BCB090" d="M35.337,50.36c0.222-0.706,0.227-1.399-0.089-2.123c-0.255,0.457,0.186,0.965-0.218,1.347
		c-0.001,0-0.001,0-0.001,0C35.271,49.789,35.348,50.057,35.337,50.36z"/>
	<path fill="#C7D24F" d="M16.112,47.69c-0.002,0.003-0.004,0.005-0.006,0.007c-0.176,0.224-0.354,0.448-0.599,0.76
		c0.819-0.051,1.09-0.572,1.396-1.047c0.001-0.001,0.001-0.002,0.002-0.003C16.598,47.383,16.517,47.99,16.112,47.69z"/>
	<path fill="#BA945F" d="M41.705,63.771c0.039,0.575,0.07,1.146,0.336,1.662c0.043-0.047,0.088-0.093,0.131-0.139
		C42.016,64.787,41.861,64.279,41.705,63.771z"/>
	<path fill="#C1C2A3" d="M47.023,63.297c-0.016,0.049,0.043,0.171,0.084,0.179c0.35,0.065,0.377-0.283,0.537-0.484
		C47.396,63.013,47.117,62.988,47.023,63.297z"/>
	<path fill="#47B34B" d="M25.79,61.602c0.032,0,0.061,0.006,0.092,0.006c1.293,0.035,2.001,0.756,2.104,2.164
		c0.103,1.402,1.204,2.457,2.586,2.475c1.313,0.018,2.481-1.004,2.611-2.285c0.022-0.215,0.084-0.484-0.193-0.554
		c-0.269-0.067-0.275,0.175-0.318,0.372c-0.287,1.306-1.12,2.011-2.251,1.923c-1.085-0.085-1.76-0.874-1.884-2.202
		c-0.146-1.535-1.365-2.564-2.886-2.434c0,0,0,0.001,0,0.002C25.628,61.264,25.639,61.451,25.79,61.602z"/>
	<path fill="#5CB94B" d="M30.628,64.834L30.628,64.834L30.628,64.834L30.628,64.834c0,0.004-0.001,0.007-0.001,0.01
		c0.567-0.04,0.958-0.335,1.119-0.87c0.133-0.445,0.021-0.862-0.329-1.196c-0.319-0.305-0.604-0.396-0.831-0.081
		c-0.042,0.07-0.087,0.128-0.123,0.222c-0.48-0.033-0.584,0.213-0.568,0.653c0.016,0.438,0.317,0.603,0.595,0.814
		c0.15,0.12,0.087,0.299,0.128,0.449C30.622,64.834,30.625,64.835,30.628,64.834z"/>
	<path fill="#C2E1B7" d="M30.221,61.921c-0.155,0.015-0.292,0.044-0.308,0.234c-0.013,0.163,0.035,0.308,0.215,0.315
		c0.31,0.014,0.341,0.211,0.335,0.447c0.039-0.092,0.08-0.161,0.123-0.222c0.227-0.314,0.512-0.224,0.831,0.081
		c0.351,0.334,0.462,0.751,0.329,1.196c-0.161,0.535-0.552,0.83-1.119,0.87c-0.01,0.137-0.02,0.274-0.03,0.414
		c0.747,0.105,1.21-0.316,1.499-0.911c0.28-0.573,0.265-1.192-0.139-1.721C31.528,62.06,30.922,61.855,30.221,61.921z"/>
	<path fill="#C4E2B9" d="M30.618,64.835c-0.041-0.15,0.022-0.329-0.128-0.449c-0.17,0.506-0.458,0.313-0.709,0.098
		c-0.323-0.276-0.357-0.666-0.344-1.065c0.008-0.215,0.029-0.471-0.306-0.455c-0.283,0.013-0.245,0.242-0.26,0.432
		c-0.069,0.852,0.337,1.479,1.2,1.849C29.927,64.662,30.376,64.891,30.618,64.835z"/>
	<polygon fill="#C4E2B9" points="30.628,64.834 30.628,64.834 30.628,64.834 	"/>
	<path fill="#747464" d="M23.755,56.928c0.015-0.029,0.028-0.058,0.042-0.086c0.035-0.069,0.069-0.139,0.104-0.209
		c-0.268-0.896-0.521-1.799-0.813-2.688c-0.063-0.192-0.042-0.498-0.361-0.533c-0.009-0.001-0.012-0.006-0.021-0.007
		c0.001,0.007,0.004,0.015,0.005,0.021C22.888,54.645,23.503,55.732,23.755,56.928z"/>
	<path fill="#89C676" d="M29.085,62.476c0.188,0.025,0.328-0.033,0.351-0.25c0.009-0.161-0.042-0.288-0.22-0.31
		c-0.183-0.021-0.338,0.018-0.347,0.246C28.862,62.319,28.909,62.451,29.085,62.476z"/>
	<path fill="#72C05A" d="M31.739,66.28c-0.155,0.022-0.257,0.133-0.241,0.304c0.019,0.2,0.144,0.309,0.34,0.283
		c0.157-0.021,0.246-0.139,0.243-0.308C32.054,66.358,31.934,66.252,31.739,66.28z"/>
	<path fill="#75C15E" d="M29.389,66.277c-0.207,0.008-0.294,0.143-0.277,0.331c0.013,0.158,0.116,0.254,0.278,0.264
		c0.203,0.011,0.298-0.105,0.323-0.292C29.683,66.392,29.591,66.269,29.389,66.277z"/>
	<path fill="#5CB94B" d="M30.627,64.844c0-0.003,0.001-0.006,0.001-0.01l0,0l0,0c-0.003,0.001-0.007,0-0.011,0.001
		c-0.241,0.056-0.69-0.173-0.546,0.408c0.174,0.052,0.348,0.096,0.525,0.015C30.608,65.118,30.618,64.98,30.627,64.844z"/>
	<path fill="#666654" d="M36.055,44.669c1.414-0.171,2.553-0.861,3.223-2.218c0.705-1.425,0.555-2.94,0.586-4.441
		c0.002-0.124-0.031-0.275-0.189-0.241c-0.199,0.043-0.256,0.245-0.229,0.408c0.145,0.795-0.357,0.835-0.938,0.882
		c-2.113,0.171-4.22,0.378-6.344,0.153c-0.717-0.076-1.596,0.192-1.593-1.084c-0.316,0.977-0.287,1.921-0.274,2.859
		c0.017,1.279,0.576,2.297,1.606,3.039C33.17,44.939,34.636,44.841,36.055,44.669z M31.088,39.439
		c2.53,0.45,5.072,0.456,7.613,0.088c0.096-0.014,0.193-0.029,0.291-0.024c0.176,0.007,0.41-0.087,0.42,0.238
		c0.008,0.221-0.053,0.292-0.293,0.374c-1.428,0.484-2.896,0.575-4.662,0.549c-0.883-0.059-2.048-0.062-3.199-0.276
		c-0.41-0.076-0.611-0.238-0.569-0.669C30.715,39.445,30.767,39.382,31.088,39.439z M30.883,41.929
		c-0.053-0.159-0.098-0.326-0.117-0.493c-0.099-0.886-0.095-0.828,0.805-0.703c2.369,0.33,4.753,0.423,7.099-0.122
		c0.826-0.191,0.664,0.208,0.561,0.636c-0.479,2-2.006,3.064-4.375,3.066C32.654,44.316,31.437,43.587,30.883,41.929z"/>
	<path fill="#F3C5A2" d="M25.287,35.542c-0.865-0.003-1.686,0.69-1.674,1.415c0.011,0.672,0.909,1.497,1.646,1.51
		c0.868,0.015,1.681-0.739,1.7-1.575C26.977,36.099,26.292,35.544,25.287,35.542z"/>
	<path fill="#F3C5A2" d="M42.488,36.689c0.018,0.613,0.662,1.196,1.32,1.194c0.715-0.002,1.191-0.526,1.17-1.287
		c-0.018-0.643-0.496-1.063-1.207-1.056C42.965,35.548,42.469,35.992,42.488,36.689z"/>
	<path fill="#F2C3A1" d="M36.477,36.842c-0.156,0-0.314,0-0.497,0c0.114-0.231,0.295-0.245,0.446-0.313
		c0.51-0.229,0.564-0.548,0.17-0.945c-0.086-0.085-0.32-0.117-0.164-0.298c0.057-0.065,0.227-0.03,0.346-0.04
		c-0.486-0.421-1.287-0.501-1.683-0.127c-0.383,0.362-0.52,0.825-0.256,1.313C35.091,36.901,35.899,37.083,36.477,36.842z"/>
	<path fill="#666654" d="M41.977,34.448c0.637,0.039,0.945-0.282,0.951-0.904c0.008-0.641-0.355-0.901-0.805-0.943
		c-0.693-0.012-1.266,0.501-1.23,1.022C40.938,34.289,41.451,34.415,41.977,34.448z"/>
	<path fill="#666654" d="M28.305,32.763c-0.626,0.019-0.889,0.403-0.906,0.991c-0.018,0.607,0.288,0.898,0.946,0.908
		c0.609,0.038,0.976-0.254,1.047-0.851C29.451,33.323,28.843,32.747,28.305,32.763z"/>
	<path fill="#726E5B" d="M36.432,35.286c-0.156,0.181,0.078,0.212,0.164,0.298c0.395,0.396,0.34,0.715-0.17,0.945
		c-0.15,0.068-0.332,0.083-0.446,0.313c0.182,0,0.34,0,0.497,0c0.957-0.348,1.031-0.739,0.301-1.596
		C36.658,35.256,36.488,35.221,36.432,35.286z"/>
	<path fill="#6C6C5B" d="M42.197,89.963h0.119c0.781-2.372,1.443-4.773,1.793-7.253C43.479,85.131,42.775,87.531,42.197,89.963z"/>
	<path fill="#6E6F56" d="M37.256,62.5c-0.391-0.029-1.051,0.714-1.066,1.225c-0.018,0.576,0.303,0.832,0.857,0.834
		c0.592,0.002,0.914-0.359,0.93-1.042C37.99,62.998,37.658,62.531,37.256,62.5z M37.553,63.598c0,0.325-0.18,0.592-0.6,0.582
		c-0.254-0.006-0.488-0.133-0.455-0.45c0.045-0.42,0.367-0.688,0.705-0.764C37.541,62.892,37.598,63.23,37.553,63.598z"/>
	<path fill="#696954" d="M36.916,56.898c0.053-0.432-0.539-0.974-1.053-1.008c-0.403-0.027-0.978,0.586-0.991,1.065
		c-0.018,0.675,0.485,0.665,0.786,0.702C36.381,57.693,36.838,57.539,36.916,56.898z M35.765,57.372
		c-0.274-0.015-0.604-0.015-0.593-0.43c0.01-0.392,0.361-0.644,0.641-0.655c0.294-0.014,0.71,0.207,0.718,0.598
		C36.537,57.33,36.145,57.371,35.765,57.372z"/>
	<path fill="#D15C4D" d="M39.23,41.248c0.104-0.428,0.266-0.828-0.561-0.636c-2.346,0.545-4.73,0.452-7.099,0.122
		c-0.899-0.125-0.903-0.184-0.805,0.703c0.02,0.167,0.064,0.333,0.117,0.493c0.554,1.658,1.771,2.387,3.973,2.385
		C37.225,44.313,38.752,43.249,39.23,41.248z"/>
	<path fill="#FDFDFE" d="M31.258,40.387c1.151,0.214,2.316,0.217,3.199,0.276c1.765,0.026,3.234-0.064,4.662-0.549
		c0.24-0.081,0.301-0.152,0.293-0.374c-0.01-0.325-0.244-0.23-0.42-0.238c-0.098-0.004-0.195,0.011-0.291,0.024
		c-2.541,0.368-5.083,0.361-7.613-0.088c-0.321-0.057-0.373,0.006-0.399,0.279C30.647,40.149,30.848,40.312,31.258,40.387z"/>
	<path fill="#F7F7F6" d="M37.203,62.966c-0.338,0.075-0.66,0.344-0.705,0.764c-0.033,0.317,0.201,0.444,0.455,0.45
		c0.42,0.01,0.6-0.257,0.6-0.582C37.598,63.23,37.541,62.892,37.203,62.966z"/>
	<path fill="#F5F4F1" d="M35.813,56.287c-0.279,0.012-0.631,0.264-0.641,0.655c-0.012,0.415,0.318,0.415,0.593,0.43
		c0.379-0.001,0.772-0.042,0.766-0.487C36.523,56.494,36.107,56.273,35.813,56.287z"/>
</g>
</svg>
